PathFileType	4	(X/Y/Z)	C:/Users/beibeiliu/ov580/test_trc/User2\sequence.9_training_dense_right.trc
DataRate	CameraRate	NumFrames	NumMarkers	Units	OrigDataRate	OrigDataStartFrame	OrigNumFrames
120	120	14	19	mm	120	177	353
Frame#	Time	ThumbCMC			ThumbMCP			ThumbIP			ThumbTip			IndexMCP			IndexPIP			IndexTip			MiddleMCP			MiddlePIP			MiddleTip			RingMCP			RingPIP			RingTip			PinkyMCP			PinkyPIP			PinkyTip			BackHand1			BackHand2			BackHand3	
		X0	Y0	Z0	X1	Y1	Z1	X2	Y2	Z2	X3	Y3	Z3	X4	Y4	Z4	X5	Y5	Z5	X6	Y6	Z6	X7	Y7	Z7	X8	Y8	Z8	X9	Y9	Z9	X10	Y10	Z10	X11	Y11	Z11	X12	Y12	Z12	X13	Y13	Z13	X14	Y14	Z14	X15	Y15	Z15	X16	Y16	Z16	X17	Y17	Z17	X18	Y18	Z18	
176	1.46667	61.5128	-4.55194	62.713	52.0688	-21.1355	35.6398	53.7314	-36.6251	2.10985	63.4758	-46.0697	-16.5035	84.4766	-1.90914	-23.1002	89.2157	-12.1328	-47.1774	98.8566	-18.5948	-70.7303	101.176	8.74001	-29.7849	108.422	-1.87677	-55.37	118.27	-5.47162	-82.1118	115.874	17.3009	-22.553	122.308	10.1421	-40.8781	129.32	5.05654	-70.8158	133.09	28.5572	-2.29487	140.468	22.4747	-23.8569	141.477	18.6856	-46.7645	106.02	42.0434	31.7466	95.7055	52.4736	65.7325	71.6381	27.1325	46.2839	
177	1.475	62.6282	-7.12009	66.4736	51.9163	-25.5307	40.0484	57.298	-36.4006	6.06643	56.9301	-52.8078	-13.6254	79.8437	-7.15085	-22.3069	91.3625	-13.7502	-47.1975	97.9926	-20.115	-69.9103	98.9544	9.55583	-25.6872	104.336	-4.45767	-56.0009	113.152	-8.25526	-85.7249	118.558	20.4751	-21.1135	123.001	12.1478	-43.1179	125.463	4.09555	-70.2642	135.116	29.6088	-1.99939	135.209	20.3212	-23.7058	135.456	14.4059	-50.6751	103.659	42.452	36.4338	98.1296	53.0787	66.1024	70.2963	26.8301	49.4337	
178	1.48333	62.3583	-5.64193	73.3918	47.307	-24.49	45.3644	43.2247	-40.0992	14.6541	44.9611	-52.0059	-5.97919	68.2073	-6.71959	-13.1532	74.9828	-13.8432	-39.5651	80.2773	-20.8856	-67.2113	86.0433	7.34696	-22.1538	89.3194	-3.33937	-49.4563	94.6817	-9.65715	-83.6946	104.017	16.4678	-21.2273	110.535	11.7488	-42.3912	110.269	3.65874	-68.7397	122.587	25.9491	-0.656315	123.07	18.0984	-24.8673	122.377	16.453	-48.3997	99.547	39.0844	37.0725	97.1871	51.906	66.2976	70.5477	26.2277	53.6699	
179	1.49167	55.5104	-6.15458	79.8556	40.0582	-22.9255	59.3471	33.1012	-37.3401	31.0993	31.6663	-48.6632	6.9099	52.274	-4.1169	-9.08247	49.4984	-14.885	-31.892	55.474	-17.2956	-56.1837	66.1539	8.87089	-15.1509	68.2367	-0.182921	-43.286	66.6257	-6.40007	-73.9939	87.9842	18.5768	-16.9488	83.9705	8.61562	-40.1714	80.5488	2.62381	-67.7383	105.158	22.8413	-3.75567	103.02	16.3827	-23.9574	97.6683	15.1322	-49.5131	92.3763	39.6292	41.2128	94.5983	50.1336	72.3275	62.0321	26.3837	62.8922	
180	1.5	53.8619	-6.32914	89.7315	31.5666	-24.1747	74.3106	19.6424	-35.8727	41.3312	11.9496	-49.2944	20.0845	33.4229	-2.1606	7.64103	27.1269	-9.80268	-21.7606	20.6568	-15.5779	-46.4299	44.857	8.64075	-8.08882	38.3803	-0.449729	-34.5783	32.4202	-2.93817	-64.9607	63.2836	16.9103	-7.90878	58.4261	11.8692	-36.637	49.5732	6.96735	-57.6555	88.9092	24.5225	1.83805	80.45	18.1528	-22.664	71.8826	16.6913	-45.1149	80.5585	40.3166	41.2197	88.3329	50.7288	77.1485	55.2892	26.8686	72.268	
181	1.50833	49.2567	-8.12204	95.6198	24.5079	-23.2233	81.7925	8.93094	-35.6766	55.6584	1.19103	-44.9114	32.0122	15.3028	-2.80387	18.904	4.92144	-9.14297	-8.79551	-2.75821	-13.5954	-32.1635	29.3546	11.4034	2.89848	17.0974	2.68042	-24.3123	1.49507	-1.41473	-50.9381	49.6327	21.0519	-2.82284	38.3941	14.4736	-27.4034	21.0587	8.28841	-46.5364	72.3776	25.3285	0.907632	59.7796	17.8653	-19.0234	47.6008	19.4876	-34.6817	69.6807	36.9534	51.134	81.3881	46.6127	78.1234	52.6534	24.0261	78.8211	
182	1.51667	45.8039	-10.2049	102.475	22.6666	-23.9264	90.3396	-1.64644	-34.1932	58.945	-10.1903	-43.2398	37.7625	2.8066	-2.7937	24.7785	-7.51594	-6.90429	1.15584	-16.5201	-11.5471	-22.2694	17.1551	9.80228	11.8112	5.13874	3.89235	-14.8368	-17.1644	-1.10864	-40.552	35.9758	18.185	5.66567	22.7515	14.2844	-19.827	6.38501	10.8392	-41.9733	59.8768	24.1379	4.12523	45.7967	17.0281	-14.3024	31.99	19.4768	-28.5728	62.1521	35.9464	50.1268	82.6674	44.4924	79.1602	45.9701	23.2545	84.1417	
183	1.525	47.6311	-11.7125	100.627	20.0379	-25.9477	88.5659	-2.92002	-36.6294	63.3638	-13.6934	-45.5308	40.8646	4.51665	-2.54013	29.1572	-12.4726	-10.3296	5.9411	-24.6478	-14.201	-17.1757	15.085	8.61891	10.5591	-2.03303	1.36051	-15.1584	-18.7015	-2.50463	-40.8912	30.1433	15.957	1.55876	16.5077	10.2834	-19.1724	-0.075106	6.40848	-37.8997	60.5518	21.4495	4.5436	43.6762	15.9393	-14.8986	23.4166	15.9954	-30.4123	61.6285	33.6773	50.6022	81.1034	41.3238	79.3772	44.219	19.2018	83.4455	
184	1.53333	45.7521	-16.4497	97.1356	22.8002	-28.6323	81.9207	1.54839	-40.6616	55.5794	-6.08456	-48.4304	34.4399	5.40001	-8.95384	22.9895	-7.12442	-13.1246	-2.81241	-15.2648	-16.2473	-26.2631	18.1603	3.635	4.42394	7.86259	-3.06556	-19.3841	-11.6802	-7.20762	-47.4404	36.9635	10.9113	0.695296	22.3536	4.29412	-21.229	7.88116	2.14251	-44.9699	63.103	15.6384	4.37217	51.0453	13.2251	-19.4912	35.6647	13.3536	-35.5789	64.1968	28.0658	49.776	77.393	36.4588	77.3868	47.5828	14.6569	80.3509	
185	1.54167	53.1407	-21.1472	92.6952	28.3514	-37.3572	77.7511	14.4551	-45.9709	46.5825	5.6849	-55.1854	22.8472	17.0936	-13.7146	11.7255	8.49799	-18.0061	-10.6391	2.5713	-22.0047	-42.6139	26.993	-3.25186	-3.21179	21.0419	-9.28837	-31.7705	10.4199	-14.4541	-56.7087	48.1151	6.0918	-9.53067	42.4545	2.09066	-27.9429	25.0069	-3.93218	-51.0045	74.1364	12.5639	1.66425	62.4338	7.26723	-23.6804	52.5647	7.70278	-41.3898	69.0636	24.9278	44.4114	85.1622	34.073	77.6464	51.4743	10.6291	77.6828	
186	1.55	59.2026	-24.7922	86.5029	36.9718	-41.4393	65.7353	27.0363	-50.2513	32.0345	21.2964	-60.8451	10.173	34.481	-19.3983	3.41187	29.5604	-26.1603	-25.6775	29.3548	-30.1113	-53.912	47.128	-6.6876	-10.473	42.9323	-14.8736	-37.7654	36.6025	-21.0256	-71.5256	67.9891	4.00157	-16.8657	64.5169	-3.24053	-37.0499	51.9773	-8.9262	-60.8198	91.3065	12.9864	-7.55655	82.3435	1.84047	-27.4204	72.6811	1.97834	-46.4632	79.9166	22.9122	42.2201	88.9119	34.1353	72.5434	55.5167	7.32466	65.301	
187	1.55833	65.0045	-26.4288	79.3873	49.036	-42.4549	53.8851	40.1173	-57.0739	23.7815	36.8073	-67.7548	0.713631	55.5081	-20.964	-7.49982	52.2149	-31.8845	-38.2024	58.7662	-35.2254	-63.0403	69.0221	-10.1175	-19.698	67.7021	-22.191	-50.8647	69.2083	-26.6651	-80.7747	86.815	-0.28106	-22.2367	86.3599	-8.53874	-41.1846	80.1992	-13.1608	-70.6442	109.116	10.5513	-11.5353	106.698	2.35094	-34.4514	98.1125	0.205118	-55.4894	91.8498	25.3701	37.0424	92.4913	32.4753	66.3986	63.9505	5.04817	57.258	
188	1.56667	70.7153	-26.9724	72.9963	54.9108	-47.729	49.3312	53.2915	-59.217	13.89	52.182	-72.8137	-6.00057	71.0912	-27.2089	-16.3725	78.0201	-36.7847	-43.1702	85.7082	-42.1006	-66.8983	86.2034	-14.6167	-27.1736	94.9575	-22.0558	-51.4951	97.6467	-32.1185	-84.827	104.329	-3.43798	-22.5871	109.375	-9.95151	-44.4415	108.655	-16.6321	-72.7706	123.069	6.62207	-7.04101	123.757	-2.76989	-32.6647	119.484	-5.78505	-56.0707	101.808	22.7968	35.9193	96.0913	31.3777	62.2911	73.3753	7.85479	54.1125	
189	1.575	71.0095	-29.6767	67.5606	61.4036	-48.2657	43.0893	61.1396	-64.6504	9.7246	64.8661	-76.2714	-9.0078	83.9119	-29.8667	-15.3382	91.1699	-42.0208	-43.9187	100.022	-49.4177	-65.8738	99.1693	-16.9018	-27.7523	106.553	-29.9215	-55.1332	113.088	-36.8517	-80.5611	116.911	-5.72995	-25.1422	121.498	-14.6513	-44.7841	127.359	-20.0036	-70.3898	136.561	9.16164	-4.65371	136.457	-5.49593	-30.7026	137.011	-9.08834	-51.2794	107.481	23.9854	33.3144	99.2801	31.7811	63.1263	75.9898	3.2205	50.0352	
